<?xml version="1.0" encoding="UTF-8" standalone="no"?>
<svg
   width="36.521744"
   height="31.304333"
   viewBox="0 0 36.521744 31.304333"
   fill="none"
   version="1.1"
   id="svg7"
   sodipodi:docname="avatar-tab-avatar.svg"
   xmlns:inkscape="http://www.inkscape.org/namespaces/inkscape"
   xmlns:sodipodi="http://sodipodi.sourceforge.net/DTD/sodipodi-0.dtd"
   xmlns="http://www.w3.org/2000/svg"
   xmlns:svg="http://www.w3.org/2000/svg">
  <sodipodi:namedview
     id="namedview7"
     pagecolor="#ffffff"
     bordercolor="#000000"
     borderopacity="0.25"
     inkscape:showpageshadow="2"
     inkscape:pageopacity="0.0"
     inkscape:pagecheckerboard="0"
     inkscape:deskcolor="#d1d1d1">
    <inkscape:page
       x="0"
       y="0"
       width="36.521744"
       height="31.304333"
       id="page2"
       margin="0"
       bleed="0" />
  </sodipodi:namedview>
  <g
     clip-path="url(#clip0_47223_91506)"
     id="g7"
     transform="translate(-2.23926,-4.34937)">
    <path
       fill-rule="evenodd"
       clip-rule="evenodd"
       d="m 20.5,4.34937 c -7.684,0 -13.91304,6.22903 -13.91304,13.91303 v 0.8136 c -2.57684,1.2806 -4.3477,3.9398 -4.3477,7.0125 0,4.3222 3.50386,7.8261 7.82604,7.8261 h 20.8696 c 4.3222,0 7.8261,-3.5039 7.8261,-7.8261 0,-3.0728 -1.771,-5.732 -4.348,-7.0126 V 18.2624 C 34.413,10.5784 28.184,4.34937 20.5,4.34937 Z"
       fill="#9069cd"
       id="path1" />
    <path
       d="m 10.2236,18.2624 c 0,-5.763 4.6718,-10.43476 10.4348,-10.43476 5.763,0 10.4348,4.67176 10.4348,10.43476 v 6.9565 c 0,5.763 -4.6718,10.4348 -10.4348,10.4348 -5.763,0 -10.4348,-4.6718 -10.4348,-10.4348 z"
       fill="#f3ad6d"
       id="path2" />
    <path
       d="m 6.74561,21.3061 c 0,-2.1611 1.75192,-3.913 3.91299,-3.913 h 20 c 2.1612,0 3.9131,1.7519 3.9131,3.913 0,2.1611 -1.7519,3.9131 -3.9131,3.9131 h -20 c -2.16107,0 -3.91299,-1.752 -3.91299,-3.9131 z"
       fill="#f3ad6d"
       id="path3" />
    <path
       d="m 16.3105,17.8278 c 0,-0.7204 0.584,-1.3044 1.3044,-1.3044 0.7204,0 1.3043,0.584 1.3043,1.3044 v 3.4782 c 0,0.7204 -0.5839,1.3044 -1.3043,1.3044 -0.7204,0 -1.3044,-0.584 -1.3044,-1.3044 z"
       fill="#bf8034"
       id="path4" />
    <path
       d="m 21.5283,17.8278 c 0,-0.7204 0.584,-1.3044 1.3044,-1.3044 0.7203,0 1.3043,0.584 1.3043,1.3044 v 3.4782 c 0,0.7204 -0.584,1.3044 -1.3043,1.3044 -0.7204,0 -1.3044,-0.584 -1.3044,-1.3044 z"
       fill="#bf8034"
       id="path5" />
    <path
       d="m 15.4409,25.2562 c 0,-0.5007 0.4059,-0.9066 0.9066,-0.9066 h 7.7521 c 0.5007,0 0.9065,0.4059 0.9065,0.9066 v 0.3978 c 0,2.6413 -2.1412,4.7826 -4.7826,4.7826 -2.6413,0 -4.7826,-2.1413 -4.7826,-4.7826 z"
       fill="#ffffff"
       id="path6" />
    <path
       d="m 6.74561,18.2661 v -0.0037 c 0,-7.684 6.22909,-13.91303 13.91299,-13.91303 2.4673,0 4.7845,0.6422 6.7937,1.76856 C 26.3543,13.4781 19.8378,19.132 11.963,19.132 c -1.8294,0 -3.5855,-0.3052 -5.21739,-0.8659 z"
       fill="#9069cd"
       id="path7" />
  </g>
  <defs
     id="defs7">
    <clipPath
       id="clip0_47223_91506">
      <rect
         width="40"
         height="40"
         fill="#ffffff"
         transform="translate(0.5)"
         id="rect7"
         x="0"
         y="0" />
    </clipPath>
  </defs>
</svg>
