<?xml version="1.0" encoding="UTF-8" standalone="no"?>
<svg
   width="8.4330502mm"
   height="12.277395mm"
   viewBox="-5.91006 -8.15061 8.4330504 12.277395"
   version="1.1"
   id="svg1"
   xml:space="preserve"
   sodipodi:docname="spark-2d.svg"
   inkscape:version="1.4.3 (0d15f75, 2025-12-25)"
   inkscape:export-filename="Doubtonator\assets\other-ui-elements\clapper-board.svg"
   inkscape:export-xdpi="96"
   inkscape:export-ydpi="96"
   xmlns:inkscape="http://www.inkscape.org/namespaces/inkscape"
   xmlns:sodipodi="http://sodipodi.sourceforge.net/DTD/sodipodi-0.dtd"
   xmlns="http://www.w3.org/2000/svg"
   xmlns:svg="http://www.w3.org/2000/svg"><sodipodi:namedview
     id="namedview1"
     pagecolor="#ffffff"
     bordercolor="#000000"
     borderopacity="0.25"
     inkscape:showpageshadow="2"
     inkscape:pageopacity="0.0"
     inkscape:pagecheckerboard="0"
     inkscape:deskcolor="#d1d1d1"
     inkscape:document-units="mm"><inkscape:page
       x="-4.038179e-23"
       y="0"
       width="8.4330511"
       height="12.277395"
       id="page2"
       margin="0"
       bleed="0" /></sodipodi:namedview><defs
     id="defs1" /><g
     inkscape:label="Camada 1"
     inkscape:groupmode="layer"
     id="layer1"
     transform="translate(-143.11797,-208.85909)"><g
       id="g5-2-7"
       transform="translate(14.158355,35.61626)"><g
         id="g9-9"
         transform="translate(33.580154,-0.050205)"><g
           id="streak-empty-1"
           transform="matrix(0.26458333,0,0,0.26458333,56.242741,151.97385)"
           fill-rule="nonzero"
           style="fill:none;stroke:none;stroke-width:1"><path
             style="fill:#f5cc1e;fill-opacity:1;stroke:#ffffff;stroke-width:5.05323;stroke-linecap:round;stroke-linejoin:miter;stroke-miterlimit:4.6;stroke-dasharray:none;stroke-opacity:1;paint-order:stroke fill markers"
             d="m 144.62967,52.6373 -16.21613,20.250746 a 1.7060618,1.7060618 0 0 0 1.33173,2.772452 h 7.00977 a 1.3351719,1.3351719 0 0 1 1.31435,1.570103 l -2.75125,15.392132 a 0.89632907,0.89632907 0 0 0 1.58419,0.715216 l 17.72049,-22.308825 a 1.7146732,1.7146732 0 0 0 -1.34265,-2.781169 h -7.76955 a 1.0705035,1.0705035 0 0 1 -1.06019,-1.218703 l 1.90762,-13.646806 A 0.97596262,0.97596262 0 0 0 144.62967,52.6373 Z"
             id="path24"
             sodipodi:nodetypes="cccccccc"
             inkscape:export-filename="Doubtonator\Assets\spark-2d.svg"
             inkscape:export-xdpi="96"
             inkscape:export-ydpi="96" /></g></g></g></g></svg>
